HIERARCHY
ROOT Hips
{
	OFFSET 0.000000 0.000000 0.000000
	CHANNELS 6 Xposition Yposition Zposition Xrotation Yrotation Zrotation
	JOINT LeftUpLeg_virtual
	{
		OFFSET 0.000000 0.000000 0.000000
		CHANNELS 3 Xrotation Yrotation Zrotation
		JOINT LeftUpLeg
		{
			OFFSET 15.427100 -6.655098 0.678600
			CHANNELS 3 Xrotation Yrotation Zrotation
			JOINT LeftLeg
			{
				OFFSET 4.081073 -39.591068 13.024000
				CHANNELS 3 Xrotation Yrotation Zrotation
				JOINT LeftFoot
				{
					OFFSET -4.081074 -37.707932 -15.979700
					CHANNELS 3 Xrotation Yrotation Zrotation
					JOINT LeftToeBase
					{
						OFFSET 5.346399 -15.068900 20.645000
						CHANNELS 3 Xrotation Yrotation Zrotation
						JOINT LeftToe_End
						{
							OFFSET 2.754700 0.931300 11.300900
							CHANNELS 3 Xrotation Yrotation Zrotation
							End Site
							{
								OFFSET 0 0 0
							}
						}
					}
				}
			}
		}
	}
	JOINT RightUpLeg_virtual
	{
		OFFSET 0.000000 0.000000 0.000000
		CHANNELS 3 Xrotation Yrotation Zrotation
		JOINT RightUpLeg
		{
			OFFSET -15.569500 -6.655098 0.678600
			CHANNELS 3 Xrotation Yrotation Zrotation
			JOINT RightLeg
			{
				OFFSET -4.081825 -39.591045 13.023800
				CHANNELS 3 Xrotation Yrotation Zrotation
				JOINT RightFoot
				{
					OFFSET 4.081824 -37.707954 -15.979600
					CHANNELS 3 Xrotation Yrotation Zrotation
					JOINT RightToeBase
					{
						OFFSET -5.346400 -15.068900 20.645000
						CHANNELS 3 Xrotation Yrotation Zrotation
						JOINT RightToe_End
						{
							OFFSET -2.754700 0.931300 11.300900
							CHANNELS 3 Xrotation Yrotation Zrotation
							End Site
							{
								OFFSET 0 0 0
							}
						}
					}
				}
			}
		}
	}
	JOINT Spine_virtual
	{
		OFFSET 0.000000 0.000000 0.000000
		CHANNELS 3 Xrotation Yrotation Zrotation
		JOINT Spine
		{
			OFFSET -0.279200 12.230698 -2.892100
			CHANNELS 3 Xrotation Yrotation Zrotation
			JOINT Spine1
			{
				OFFSET -0.232667 10.192268 -1.242267
				CHANNELS 3 Xrotation Yrotation Zrotation
				JOINT Spine1_split
				{
					OFFSET -0.232667 10.192268 -1.242267
					CHANNELS 3 Xrotation Yrotation Zrotation
					JOINT Spine2
					{
						OFFSET -0.232667 10.192268 -1.242267
						CHANNELS 3 Xrotation Yrotation Zrotation
						JOINT Neck_virtual
						{
							OFFSET 0.000000 0.000000 0.000000
							CHANNELS 3 Xrotation Yrotation Zrotation
							JOINT Neck
							{
								OFFSET -0.418800 17.814194 8.416900
								CHANNELS 3 Xrotation Yrotation Zrotation
								JOINT Head
								{
									OFFSET 0.000000 7.031097 3.806800
									CHANNELS 3 Xrotation Yrotation Zrotation
									JOINT HeadTop_End
									{
										OFFSET 0.000000 24.646606 12.978600
										CHANNELS 3 Xrotation Yrotation Zrotation
										End Site
										{
											OFFSET 0 0 0
										}
									}
								}
							}
						}
						JOINT LeftShoulder_virtual
						{
							OFFSET 0.000000 0.000000 0.000000
							CHANNELS 3 Xrotation Yrotation Zrotation
							JOINT LeftShoulder
							{
								OFFSET 8.476499 7.247704 -3.868750
								CHANNELS 3 Xrotation Yrotation Zrotation
								JOINT LeftShoulder_split
								{
									OFFSET 8.476499 7.247704 -3.868750
									CHANNELS 3 Xrotation Yrotation Zrotation
									JOINT LeftArm
									{
										OFFSET 9.308998 -2.777710 0.208600
										CHANNELS 3 Xrotation Yrotation Zrotation
										JOINT LeftForeArm
										{
											OFFSET 29.972298 0.000000 0.000000
											CHANNELS 3 Xrotation Yrotation Zrotation
											JOINT LeftHand
											{
												OFFSET 26.026505 0.000000 0.000000
												CHANNELS 3 Xrotation Yrotation Zrotation
												End Site
												{
													OFFSET 0 0 0
												}
											}
										}
									}
								}
							}
						}
						JOINT RightShoulder_virtual
						{
							OFFSET 0.000000 0.000000 0.000000
							CHANNELS 3 Xrotation Yrotation Zrotation
							JOINT RightShoulder
							{
								OFFSET -7.570500 7.247704 -3.868750
								CHANNELS 3 Xrotation Yrotation Zrotation
								JOINT RightShoulder_split
								{
									OFFSET -7.570500 7.247704 -3.868750
									CHANNELS 3 Xrotation Yrotation Zrotation
									JOINT RightArm
									{
										OFFSET -9.308998 -2.777710 0.208500
										CHANNELS 3 Xrotation Yrotation Zrotation
										JOINT RightForeArm
										{
											OFFSET -29.972300 0.000000 0.000000
											CHANNELS 3 Xrotation Yrotation Zrotation
											JOINT RightHand
											{
												OFFSET -26.026505 0.000000 0.000000
												CHANNELS 3 Xrotation Yrotation Zrotation
												End Site
												{
													OFFSET 0 0 0
												}
											}
										}
									}
								}
							}
						}
					}
				}
			}
		}
	}
}
MOTION
Frames: 8
Frame Time: 0.03333333
2.784212 90.682503 -17.171501 0.000000 0.000000 0.000000 -16.241532 5.039623 1.068690 7.289160 34.136978 3.964192 26.509117 12.440580 -4.615943 -16.125768 21.213997 -11.496284 -3.583568 -4.072731 7.779033 0.000000 0.000000 0.000000 -14.573243 2.163237 0.107430 23.612082 -12.660345 4.666224 17.393912 -2.422610 5.817022 -30.278737 -28.622936 3.681206 -5.521179 3.892992 -8.445171 0.000000 0.000000 0.000000 -14.796725 7.378804 0.642996 6.281725 -6.140537 -2.801997 3.127153 -0.286854 -0.576010 0.157044 0.139790 -0.051957 0.000000 0.000000 0.000000 6.240671 1.558616 -0.357383 8.517882 4.578946 3.139667 -11.591213 -40.797615 12.389879 0.000000 0.000000 0.000000 5.984329 -0.076272 -0.706528 4.345506 -4.423705 -11.915329 8.321983 -9.009294 -0.111752 -26.201442 12.814485 -34.709983 14.496539 -55.679070 11.707643 0.000000 0.000000 0.000000 5.193173 -0.491490 -0.516730 -2.170099 8.996210 19.220432 10.494131 5.430281 -0.099312 -10.250368 0.784782 58.772501 -4.236001 42.439408 2.986672 0.000000 0.000000 0.000000 
2.436373 90.573387 -17.190239 0.000000 0.000000 0.000000 -16.419923 4.863540 0.944867 6.267453 33.488493 5.118975 28.225673 12.435872 -5.045138 -14.658190 20.660665 -11.007893 -3.472744 -4.089853 7.707038 0.000000 0.000000 0.000000 -14.460917 2.209669 0.079479 23.473197 -13.026201 5.034907 17.927167 -2.321048 5.694048 -30.399932 -28.965903 3.631643 -4.669463 3.791006 -8.331213 0.000000 0.000000 0.000000 -14.871031 7.096438 0.480802 6.539330 -6.293855 -2.808148 3.108778 -0.319370 -0.581476 0.161396 0.111791 -0.041295 0.000000 0.000000 0.000000 6.229444 1.524673 -0.356608 8.540166 4.625539 3.158999 -11.539794 -40.618309 12.336589 0.000000 0.000000 0.000000 6.040679 -0.115880 -0.682613 4.325105 -4.481423 -11.949735 8.358182 -8.878295 -0.193564 -26.436978 12.670990 -34.863300 14.571565 -55.863393 11.804654 0.000000 0.000000 0.000000 5.215365 -0.527917 -0.513747 -2.160696 8.969637 19.185687 10.489645 5.132526 -0.092840 -10.177038 0.475541 58.815695 -4.303079 42.465089 3.052022 0.000000 0.000000 0.000000 
1.950175 90.553909 -17.053299 0.000000 0.000000 0.000000 -16.443544 4.632473 0.433076 3.737704 32.067677 7.418222 30.920184 12.028889 -5.540620 -11.938635 18.773181 -10.635639 -3.978437 -4.173063 6.722124 0.000000 0.000000 0.000000 -14.361146 2.066258 -0.284911 23.359711 -13.417487 5.415204 18.501265 -1.762528 5.635960 -30.953021 -29.242683 3.593356 -2.999891 3.758087 -8.466458 0.000000 0.000000 0.000000 -14.822818 6.406895 -0.063240 6.742391 -6.409277 -2.601184 3.100127 -0.393816 -0.583913 0.173533 0.078561 -0.025875 0.000000 0.000000 0.000000 6.244212 1.459343 -0.366867 8.613793 4.697966 3.237590 -11.508159 -40.135342 12.421926 0.000000 0.000000 0.000000 6.094842 -0.199869 -0.666215 4.280623 -4.552852 -12.018085 8.339851 -8.744830 -0.277006 -26.867985 12.525435 -35.050536 14.762380 -55.935284 11.971234 0.000000 0.000000 0.000000 5.253936 -0.603675 -0.511038 -2.131907 8.806909 19.075004 10.249676 4.862198 0.032555 -9.975747 0.175531 58.717873 -4.403391 42.454711 3.140996 0.000000 0.000000 0.000000 
1.481970 90.631966 -16.818497 0.000000 0.000000 0.000000 -16.412977 4.095420 -0.392769 0.611746 30.014870 10.195625 33.486239 11.044652 -5.832614 -8.458542 15.586748 -10.594090 -7.569946 -4.560392 6.121466 0.000000 0.000000 0.000000 -14.367931 1.552117 -0.957823 23.279383 -13.699608 5.775071 19.013244 -0.814640 5.586879 -31.585496 -29.466525 3.672223 -1.259574 3.833433 -8.830498 0.000000 0.000000 0.000000 -14.697527 5.426686 -0.863536 6.865228 -6.451896 -2.218924 3.111439 -0.483467 -0.585486 0.184620 0.072467 -0.008642 0.000000 0.000000 0.000000 6.283359 1.372896 -0.390973 8.729623 4.793472 3.363304 -11.522319 -39.376351 12.560166 0.000000 0.000000 0.000000 6.142614 -0.316175 -0.661865 4.213151 -4.629907 -12.103100 8.295057 -8.623866 -0.302597 -27.374956 12.416251 -35.239507 14.981424 -55.856471 12.129118 0.000000 0.000000 0.000000 5.302864 -0.699940 -0.505715 -2.089050 8.551344 18.899504 9.843963 4.721472 0.189706 -9.677575 0.003157 58.528328 -4.514869 42.427742 3.229475 0.000000 0.000000 0.000000 
1.155838 90.776947 -16.366821 0.000000 0.000000 0.000000 -16.385052 2.985545 -1.375199 -1.744276 27.247581 12.347409 35.112927 9.579655 -5.601056 -5.470507 11.652042 -10.648917 -13.486576 -5.261252 6.318551 0.000000 0.000000 0.000000 -14.454741 0.612869 -1.808821 23.104763 -13.779986 5.950631 19.394988 0.525837 5.489625 -31.618954 -29.700357 4.376561 -0.573411 4.054052 -9.361876 0.000000 0.000000 0.000000 -14.586340 3.969960 -1.778554 6.924584 -6.401515 -1.745172 3.153762 -0.568506 -0.591917 0.184950 0.075627 -0.008173 0.000000 0.000000 0.000000 6.346779 1.275573 -0.422709 8.857628 4.934468 3.508970 -11.632867 -38.373652 12.659383 0.000000 0.000000 0.000000 6.191260 -0.452057 -0.666462 4.132973 -4.703504 -12.184259 8.295583 -8.544920 -0.277966 -27.847967 12.347280 -35.390178 15.146064 -55.683469 12.207336 0.000000 0.000000 0.000000 5.347289 -0.801271 -0.495399 -2.051114 8.248203 18.694863 9.377080 4.642757 0.337584 -9.328073 0.025483 58.290679 -4.614062 42.385500 3.287598 0.000000 0.000000 0.000000 
0.990779 90.915077 -15.559948 0.000000 0.000000 0.000000 -16.360506 1.184046 -2.360215 -2.942266 24.386511 13.282648 35.890424 8.349443 -5.091669 -4.488128 8.068764 -10.186818 -16.961399 -5.823890 6.279562 0.000000 0.000000 0.000000 -14.598573 -0.938826 -2.675475 22.727847 -13.564315 5.819140 19.660389 2.238367 5.264855 -30.887259 -29.906400 5.771505 -0.935890 4.383305 -9.960452 0.000000 0.000000 0.000000 -14.657554 1.899300 -2.715873 6.952290 -6.256452 -1.275943 3.217049 -0.637227 -0.601073 0.178673 0.094650 -0.028906 0.000000 0.000000 0.000000 6.422832 1.178996 -0.461147 8.957516 5.130105 3.640598 -11.880209 -37.156454 12.647211 0.000000 0.000000 0.000000 6.250949 -0.589885 -0.678317 4.048212 -4.779857 -12.270603 8.375492 -8.511999 -0.193659 -28.209947 12.328522 -35.477744 15.202218 -55.486968 12.165641 0.000000 0.000000 0.000000 5.377390 -0.898403 -0.478626 -2.032066 7.948329 18.500121 8.885369 4.566073 0.454085 -8.963656 0.233954 58.068793 -4.676822 42.328537 3.287344 0.000000 0.000000 0.000000 
0.973990 90.986229 -14.572102 0.000000 0.000000 0.000000 -16.452138 -1.210737 -3.248778 -3.129980 21.848443 13.160711 35.627909 7.423062 -4.357849 -5.653492 5.289981 -9.737438 -16.562085 -6.089315 6.257158 0.000000 0.000000 0.000000 -14.842177 -3.189342 -3.471466 22.137828 -13.067130 5.414419 19.792949 4.061006 4.900621 -29.860183 -29.960758 7.110681 -1.297712 4.708118 -10.524052 0.000000 0.000000 0.000000 -15.030530 -0.618770 -3.611610 6.997610 -6.061273 -0.894878 3.300400 -0.692265 -0.616174 0.180320 0.113246 -0.044260 0.000000 0.000000 0.000000 6.506877 1.097850 -0.500723 9.015630 5.394015 3.731701 -12.282050 -35.748346 12.515189 0.000000 0.000000 0.000000 6.309782 -0.714168 -0.693722 3.960723 -4.877020 -12.346513 8.488277 -8.503646 -0.118932 -28.445313 12.344088 -35.492890 15.123000 -55.306828 11.988876 0.000000 0.000000 0.000000 5.385897 -0.978327 -0.454979 -2.035833 7.695343 18.349216 8.412133 4.474006 0.546006 -8.618927 0.540783 57.880813 -4.695441 42.250891 3.215659 0.000000 0.000000 0.000000 
1.111402 91.005341 -13.486065 0.000000 0.000000 0.000000 -16.701995 -4.329539 -4.102851 -2.351420 19.442007 12.097067 34.341689 6.532991 -3.401410 -7.807012 3.400560 -10.168517 -13.548399 -6.093774 6.451405 0.000000 0.000000 0.000000 -15.113747 -6.097148 -4.229495 21.349684 -12.478666 4.855367 19.792341 5.754744 4.434056 -29.070989 -29.848050 7.749425 -0.969444 4.953028 -10.988506 0.000000 0.000000 0.000000 -15.612716 -3.480702 -4.505597 7.071568 -5.826570 -0.632239 3.391295 -0.736853 -0.630358 0.182628 0.114092 -0.049599 0.000000 0.000000 0.000000 6.592844 1.046536 -0.529266 9.002009 5.705580 3.769834 -12.796970 -34.260755 12.313859 0.000000 0.000000 0.000000 6.352394 -0.810166 -0.713002 3.873190 -4.994623 -12.411956 8.590850 -8.495822 -0.082060 -28.574701 12.362236 -35.448784 14.944461 -55.168264 11.711179 0.000000 0.000000 0.000000 5.377176 -1.037545 -0.433461 -2.072981 7.522377 18.274303 8.019504 4.283142 0.623409 -8.315894 0.831419 57.733198 -4.673574 42.168065 3.073531 0.000000 0.000000 0.000000 
